# xmcd
#
# Track frame offsets:
#	150
#	11920
#	24674
#	38986
#	52545
#	65082
#	77456
#	88765
#	103180
#	116687
#	129126
#	139797
#	151132
#	162872
#	175446
#	189105
#	202252
#	215624
#	228851
#	243109
#	257236
#	270534
#	284085
#	297853
#
# Disc length: 4157 seconds
#
# Revision: 1
# Processed by: cddbd v1.5.2PL0 Copyright (c) Steve Scherf et al.
# Submitted via: audiograbber 1.83.01
#
DISCID=55103b18
DTITLE=Various Artist - Hokum Blues - Complete Recorded Works in Chronological Order, 
DTITLE=1924-1929
DYEAR=1995
DGENRE=Hokum
TTITLE0=Ukulele Bob Williams - West Indes Blues
TTITLE1=Ukulele Bob Williams - Go 'Long Mule
TTITLE2=The Two of Spades - Meddlin' With the Blues
TTITLE3=The Two of Spades - Harmonica Blues
TTITLE4=Louise Ross - No Home Blues
TTITLE5=Louise Ross - Can't Fool Me Blues
TTITLE6=Danny Small and Ukulele Mays - Sweet Georgia Brown
TTITLE7=Danny Small and Ukulele Mays - Loud Speaking Papa
TTITLE8=Danny Small and Ukulele Mays - Sweet Man
TTITLE9=Danny Small and Ukulele Mays - Cecilia
TTITLE10=The Pebbles - Pebble Blues
TTITLE11=The Pebbles - Can't Sleep Blues
TTITLE12=The Pebbles - Who's You Tellin'
TTITLE13=The Pebbles - I Mean, It's Just Too Bad
TTITLE14=The Pebbles - Hot Pebble Blues
TTITLE15=The Pebbles - Deep Henderson
TTITLE16=Ki Ki Johnson - Lone Grave
TTITLE17=Ki Ki Johnson - Look What a Hole I'm In
TTITLE18=Ki Ki Johnson - Lady, Your Clock Ain't Right
TTITLE19=Ki Ki Johnson - Wrong Woman Blues
TTITLE20=Feathers and Frogs - How You Get That Way
TTITLE21=Feathers and Frogs - Sweet Black Dog
TTITLE22=Swann and Lee - Fishy Little Thing (take B)
TTITLE23=Swann and lee - It Sure Is Nice (take B)
EXTD=
EXTT0=
EXTT1=
EXTT2=
EXTT3=
EXTT4=
EXTT5=
EXTT6=
EXTT7=
EXTT8=
EXTT9=
EXTT10=
EXTT11=
EXTT12=
EXTT13=
EXTT14=
EXTT15=
EXTT16=
EXTT17=
EXTT18=
EXTT19=
EXTT20=
EXTT21=
EXTT22=
EXTT23=
PLAYORDER=
